{
  "accessors": [
    {
      "bufferView": 2,
      "componentType": 5126,
      "count": 65532,
      "max": [
        0.4387359023094177,
        0.48067885637283325,
        0.07615135610103607
      ],
      "min": [
        -0.4896343946456909,
        -0.5,
        -0.4363139271736145
      ],
      "type": "VEC3"
    },
    {
      "bufferView": 2,
      "byteOffset": 786384,
      "componentType": 5126,
      "count": 65532,
      "max": [
        1.0,
        0.9999690055847168,
        0.9999690055847168
      ],
      "min": [
        -1.0,
        -1.0,
        -0.9999690055847168
      ],
      "type": "VEC3"
    },
    {
      "bufferView": 3,
      "componentType": 5126,
      "count": 65532,
      "max": [
        0.99996417760849,
        0.9999302625656128,
        1.0,
        1.0
      ],
      "min": [
        -1.0,
        -0.9999358057975769,
        -1.0,
        -1.0
      ],
      "type": "VEC4"
    },
    {
      "bufferView": 1,
      "componentType": 5126,
      "count": 65532,
      "max": [
        0.9999575018882751,
        0.9987665414810181
      ],
      "min": [
        0.0012245092075318098,
        0.00027173757553100586
      ],
      "type": "VEC2"
    },
    {
      "bufferView": 1,
      "byteOffset": 524256,
      "componentType": 5126,
      "count": 65532,
      "max": [
        0.9999575018882751,
        0.9987665414810181
      ],
      "min": [
        0.0012245092075318098,
        0.00027173757553100586
      ],
      "type": "VEC2"
    },
    {
      "bufferView": 1,
      "byteOffset": 1048512,
      "componentType": 5126,
      "count": 65532,
      "max": [
        0.9999575018882751,
        0.9987665414810181
      ],
      "min": [
        0.0012245092075318098,
        0.00027173757553100586
      ],
      "type": "VEC2"
    },
    {
      "bufferView": 1,
      "byteOffset": 1572768,
      "componentType": 5126,
      "count": 65532,
      "max": [
        0.9999575018882751,
        0.9987665414810181
      ],
      "min": [
        0.0012245092075318098,
        0.00027173757553100586
      ],
      "type": "VEC2"
    },
    {
      "bufferView": 0,
      "componentType": 5125,
      "count": 345873,
      "type": "SCALAR"
    },
    {
      "bufferView": 2,
      "byteOffset": 1572768,
      "componentType": 5126,
      "count": 65532,
      "max": [
        0.48988476395606995,
        0.49850162863731384,
        0.07749416679143906
      ],
      "min": [
        -0.49573808908462524,
        -0.49682608246803284,
        -0.37784063816070557
      ],
      "type": "VEC3"
    },
    {
      "bufferView": 2,
      "byteOffset": 2359152,
      "componentType": 5126,
      "count": 65532,
      "max": [
        1.0,
        0.9999690055847168,
        0.9988549947738647
      ],
      "min": [
        -1.0,
        -1.0,
        -0.9998760223388672
      ],
      "type": "VEC3"
    },
    {
      "bufferView": 3,
      "byteOffset": 1048512,
      "componentType": 5126,
      "count": 65532,
      "max": [
        0.99996417760849,
        0.9999986886978149,
        1.0,
        1.0
      ],
      "min": [
        -0.9999995231628418,
        -0.9999999403953552,
        -0.9999947547912598,
        -1.0
      ],
      "type": "VEC4"
    },
    {
      "bufferView": 1,
      "byteOffset": 2097024,
      "componentType": 5126,
      "count": 65532,
      "max": [
        0.998736560344696,
        0.9994989633560181
      ],
      "min": [
        3.5641714930534363e-06,
        0.0005158683634363115
      ],
      "type": "VEC2"
    },
    {
      "bufferView": 1,
      "byteOffset": 2621280,
      "componentType": 5126,
      "count": 65532,
      "max": [
        0.998736560344696,
        0.9994989633560181
      ],
      "min": [
        3.5641714930534363e-06,
        0.0005158683634363115
      ],
      "type": "VEC2"
    },
    {
      "bufferView": 1,
      "byteOffset": 3145536,
      "componentType": 5126,
      "count": 65532,
      "max": [
        0.998736560344696,
        0.9994989633560181
      ],
      "min": [
        3.5641714930534363e-06,
        0.0005158683634363115
      ],
      "type": "VEC2"
    },
    {
      "bufferView": 1,
      "byteOffset": 3669792,
      "componentType": 5126,
      "count": 65532,
      "max": [
        0.998736560344696,
        0.9994989633560181
      ],
      "min": [
        3.5641714930534363e-06,
        0.0005158683634363115
      ],
      "type": "VEC2"
    },
    {
      "bufferView": 0,
      "byteOffset": 1383492,
      "componentType": 5125,
      "count": 337719,
      "type": "SCALAR"
    },
    {
      "bufferView": 2,
      "byteOffset": 3145536,
      "componentType": 5126,
      "count": 65532,
      "max": [
        0.49727022647857666,
        0.49917301535606384,
        0.3656490743160248
      ],
      "min": [
        -0.49726399779319763,
        -0.49670401215553284,
        -0.25826945900917053
      ],
      "type": "VEC3"
    },
    {
      "bufferView": 2,
      "byteOffset": 3931920,
      "componentType": 5126,
      "count": 65532,
      "max": [
        0.9999690055847168,
        0.9999690055847168,
        0.9999690055847168
      ],
      "min": [
        -1.0,
        -1.0,
        -0.9999690055847168
      ],
      "type": "VEC3"
    },
    {
      "bufferView": 3,
      "byteOffset": 2097024,
      "componentType": 5126,
      "count": 65532,
      "max": [
        0.9999945759773254,
        0.9999901652336121,
        0.9999997615814209,
        1.0
      ],
      "min": [
        -1.0,
        -0.9999332427978516,
        -0.9999947547912598,
        -1.0
      ],
      "type": "VEC4"
    },
    {
      "bufferView": 1,
      "byteOffset": 4194048,
      "componentType": 5126,
      "count": 65532,
      "max": [
        0.9997133016586304,
        0.9999871850013733
      ],
      "min": [
        0.0009803201537579298,
        0.0012482606107369065
      ],
      "type": "VEC2"
    },
    {
      "bufferView": 1,
      "byteOffset": 4718304,
      "componentType": 5126,
      "count": 65532,
      "max": [
        0.9997133016586304,
        0.9999871850013733
      ],
      "min": [
        0.0009803201537579298,
        0.0012482606107369065
      ],
      "type": "VEC2"
    },
    {
      "bufferView": 1,
      "byteOffset": 5242560,
      "componentType": 5126,
      "count": 65532,
      "max": [
        0.9997133016586304,
        0.9999871850013733
      ],
      "min": [
        0.0009803201537579298,
        0.0012482606107369065
      ],
      "type": "VEC2"
    },
    {
      "bufferView": 1,
      "byteOffset": 5766816,
      "componentType": 5126,
      "count": 65532,
      "max": [
        0.9997133016586304,
        0.9999871850013733
      ],
      "min": [
        0.0009803201537579298,
        0.0012482606107369065
      ],
      "type": "VEC2"
    },
    {
      "bufferView": 0,
      "byteOffset": 2734368,
      "componentType": 5125,
      "count": 333009,
      "type": "SCALAR"
    },
    {
      "bufferView": 2,
      "byteOffset": 4718304,
      "componentType": 5126,
      "count": 65532,
      "max": [
        0.3599373400211334,
        0.49996650218963623,
        0.43632972240448
      ],
      "min": [
        -0.2710614800453186,
        -0.49664297699928284,
        -0.12374428659677505
      ],
      "type": "VEC3"
    },
    {
      "bufferView": 2,
      "byteOffset": 5504688,
      "componentType": 5126,
      "count": 65532,
      "max": [
        1.0,
        0.9999690055847168,
        1.0
      ],
      "min": [
        -1.0,
        -1.0,
        -0.9999690055847168
      ],
      "type": "VEC3"
    },
    {
      "bufferView": 3,
      "byteOffset": 3145536,
      "componentType": 5126,
      "count": 65532,
      "max": [
        0.9999890923500061,
        0.9999904036521912,
        1.0,
        1.0
      ],
      "min": [
        -0.9999997019767761,
        -0.9999996423721313,
        -0.9999550580978394,
        -1.0
      ],
      "type": "VEC4"
    },
    {
      "bufferView": 1,
      "byteOffset": 6291072,
      "componentType": 5126,
      "count": 65532,
      "max": [
        0.998736560344696,
        0.9999871850013733
      ],
      "min": [
        0.00024775316705927253,
        0.0012482606107369065
      ],
      "type": "VEC2"
    },
    {
      "bufferView": 1,
      "byteOffset": 6815328,
      "componentType": 5126,
      "count": 65532,
      "max": [
        0.998736560344696,
        0.9999871850013733
      ],
      "min": [
        0.00024775316705927253,
        0.0012482606107369065
      ],
      "type": "VEC2"
    },
    {
      "bufferView": 1,
      "byteOffset": 7339584,
      "componentType": 5126,
      "count": 65532,
      "max": [
        0.998736560344696,
        0.9999871850013733
      ],
      "min": [
        0.00024775316705927253,
        0.0012482606107369065
      ],
      "type": "VEC2"
    },
    {
      "bufferView": 1,
      "byteOffset": 7863840,
      "componentType": 5126,
      "count": 65532,
      "max": [
        0.998736560344696,
        0.9999871850013733
      ],
      "min": [
        0.00024775316705927253,
        0.0012482606107369065
      ],
      "type": "VEC2"
    },
    {
      "bufferView": 0,
      "byteOffset": 4066404,
      "componentType": 5125,
      "count": 344490,
      "type": "SCALAR"
    },
    {
      "bufferView": 2,
      "byteOffset": 6291072,
      "componentType": 5126,
      "count": 28629,
      "max": [
        0.4862225651741028,
        0.49972236156463623,
        0.07840971648693085
      ],
      "min": [
        -0.49409008026123047,
        -0.49670401215553284,
        -0.29196181893348694
      ],
      "type": "VEC3"
    },
    {
      "bufferView": 2,
      "byteOffset": 6634620,
      "componentType": 5126,
      "count": 28629,
      "max": [
        1.0,
        0.9998760223388672,
        0.9999690055847168
      ],
      "min": [
        -0.9999690055847168,
        -1.0,
        -1.0
      ],
      "type": "VEC3"
    },
    {
      "bufferView": 3,
      "byteOffset": 4194048,
      "componentType": 5126,
      "count": 28629,
      "max": [
        1.0,
        0.9999276399612427,
        0.9999964237213135,
        1.0
      ],
      "min": [
        -0.9999971389770508,
        -0.9999386668205261,
        -1.0,
        -1.0
      ],
      "type": "VEC4"
    },
    {
      "bufferView": 1,
      "byteOffset": 8388096,
      "componentType": 5126,
      "count": 28629,
      "max": [
        0.9999575018882751,
        0.9990106821060181
      ],
      "min": [
        0.0004919421626254916,
        0.00027173757553100586
      ],
      "type": "VEC2"
    },
    {
      "bufferView": 1,
      "byteOffset": 8617128,
      "componentType": 5126,
      "count": 28629,
      "max": [
        0.9999575018882751,
        0.9990106821060181
      ],
      "min": [
        0.0004919421626254916,
        0.00027173757553100586
      ],
      "type": "VEC2"
    },
    {
      "bufferView": 1,
      "byteOffset": 8846160,
      "componentType": 5126,
      "count": 28629,
      "max": [
        0.9999575018882751,
        0.9990106821060181
      ],
      "min": [
        0.0004919421626254916,
        0.00027173757553100586
      ],
      "type": "VEC2"
    },
    {
      "bufferView": 1,
      "byteOffset": 9075192,
      "componentType": 5126,
      "count": 28629,
      "max": [
        0.9999575018882751,
        0.9990106821060181
      ],
      "min": [
        0.0004919421626254916,
        0.00027173757553100586
      ],
      "type": "VEC2"
    },
    {
      "bufferView": 0,
      "byteOffset": 5444364,
      "componentType": 5125,
      "count": 138813,
      "type": "SCALAR"
    }
  ],
  "asset": {
    "extras": {
      "author": "Vortex3D (https://sketchfab.com/zulon)",
      "license": "CC-BY-4.0 (http://creativecommons.org/licenses/by/4.0/)",
      "source": "https://sketchfab.com/3d-models/neogenesis-the-becoming-of-her-f58a1d9f986c4fd89b4a15ec77681441",
      "title": "\"NeoGenesis – The Becoming of Her\""
    },
    "generator": "Sketchfab-16.62.0",
    "version": "2.0"
  },
  "bufferViews": [
    {
      "buffer": 0,
      "byteLength": 5999616,
      "name": "floatBufferViews",
      "target": 34963
    },
    {
      "buffer": 0,
      "byteLength": 9304224,
      "byteOffset": 5999616,
      "byteStride": 8,
      "name": "floatBufferViews",
      "target": 34962
    },
    {
      "buffer": 0,
      "byteLength": 6978168,
      "byteOffset": 15303840,
      "byteStride": 12,
      "name": "floatBufferViews",
      "target": 34962
    },
    {
      "buffer": 0,
      "byteLength": 4652112,
      "byteOffset": 22282008,
      "byteStride": 16,
      "name": "floatBufferViews",
      "target": 34962
    }
  ],
  "buffers": [
    {
      "byteLength": 26934120,
      "uri": "scene.bin"
    }
  ],
  "images": [
    {
      "uri": "textures/tripo_material_50c690ef-d620-4d6a-b87b-a6f4f4a551db_baseColor.jpeg"
    },
    {
      "uri": "textures/tripo_material_50c690ef-d620-4d6a-b87b-a6f4f4a551db_metallicRoughness.png"
    },
    {
      "uri": "textures/tripo_material_50c690ef-d620-4d6a-b87b-a6f4f4a551db_normal.jpeg"
    }
  ],
  "materials": [
    {
      "name": "tripo_material_50c690ef-d620-4d6a-b87b-a6f4f4a551db",
      "normalTexture": {
        "index": 2,
        "texCoord": 2
      },
      "pbrMetallicRoughness": {
        "baseColorTexture": {
          "index": 0
        },
        "metallicRoughnessTexture": {
          "index": 1,
          "texCoord": 1
        }
      }
    }
  ],
  "meshes": [
    {
      "name": "Object_0",
      "primitives": [
        {
          "attributes": {
            "NORMAL": 1,
            "POSITION": 0,
            "TANGENT": 2,
            "TEXCOORD_0": 3,
            "TEXCOORD_1": 4,
            "TEXCOORD_2": 5,
            "TEXCOORD_3": 6
          },
          "indices": 7,
          "material": 0,
          "mode": 4
        }
      ]
    },
    {
      "name": "Object_1",
      "primitives": [
        {
          "attributes": {
            "NORMAL": 9,
            "POSITION": 8,
            "TANGENT": 10,
            "TEXCOORD_0": 11,
            "TEXCOORD_1": 12,
            "TEXCOORD_2": 13,
            "TEXCOORD_3": 14
          },
          "indices": 15,
          "material": 0,
          "mode": 4
        }
      ]
    },
    {
      "name": "Object_2",
      "primitives": [
        {
          "attributes": {
            "NORMAL": 17,
            "POSITION": 16,
            "TANGENT": 18,
            "TEXCOORD_0": 19,
            "TEXCOORD_1": 20,
            "TEXCOORD_2": 21,
            "TEXCOORD_3": 22
          },
          "indices": 23,
          "material": 0,
          "mode": 4
        }
      ]
    },
    {
      "name": "Object_3",
      "primitives": [
        {
          "attributes": {
            "NORMAL": 25,
            "POSITION": 24,
            "TANGENT": 26,
            "TEXCOORD_0": 27,
            "TEXCOORD_1": 28,
            "TEXCOORD_2": 29,
            "TEXCOORD_3": 30
          },
          "indices": 31,
          "material": 0,
          "mode": 4
        }
      ]
    },
    {
      "name": "Object_4",
      "primitives": [
        {
          "attributes": {
            "NORMAL": 33,
            "POSITION": 32,
            "TANGENT": 34,
            "TEXCOORD_0": 35,
            "TEXCOORD_1": 36,
            "TEXCOORD_2": 37,
            "TEXCOORD_3": 38
          },
          "indices": 39,
          "material": 0,
          "mode": 4
        }
      ]
    }
  ],
  "nodes": [
    {
      "children": [
        1
      ],
      "matrix": [
        1.6273677349090576,
        0.0,
        0.0,
        0.0,
        0.0,
        3.613482257656248e-16,
        -1.6273677349090576,
        0.0,
        0.0,
        1.6273677349090576,
        3.613482257656248e-16,
        0.0,
        0.0,
        0.0,
        0.0,
        1.0
      ],
      "name": "Sketchfab_model"
    },
    {
      "children": [
        2
      ],
      "name": "root"
    },
    {
      "children": [
        3
      ],
      "matrix": [
        1.0,
        0.0,
        0.0,
        0.0,
        0.0,
        2.220446049250313e-16,
        1.0,
        0.0,
        0.0,
        -1.0,
        2.220446049250313e-16,
        0.0,
        0.0,
        0.0,
        0.0,
        1.0
      ],
      "name": "GLTF_SceneRootNode"
    },
    {
      "children": [
        4,
        5,
        6,
        7,
        8
      ],
      "name": "tripo_node_50c690ef-d620-4d6a-b87b-a6f4f4a551db_0"
    },
    {
      "mesh": 0,
      "name": "Object_4"
    },
    {
      "mesh": 1,
      "name": "Object_5"
    },
    {
      "mesh": 2,
      "name": "Object_6"
    },
    {
      "mesh": 3,
      "name": "Object_7"
    },
    {
      "mesh": 4,
      "name": "Object_8"
    }
  ],
  "samplers": [
    {
      "magFilter": 9729,
      "minFilter": 9987,
      "wrapS": 10497,
      "wrapT": 10497
    }
  ],
  "scene": 0,
  "scenes": [
    {
      "name": "Sketchfab_Scene",
      "nodes": [
        0
      ]
    }
  ],
  "textures": [
    {
      "sampler": 0,
      "source": 0
    },
    {
      "sampler": 0,
      "source": 1
    },
    {
      "sampler": 0,
      "source": 2
    }
  ]
}
